<svg xmlns="http://www.w3.org/2000/svg" viewBox="-5.93 -12.99 51.4 77.96"><path fill="#005DAA" d="M39.54 45.61c0 1.72-.7 2.72-2.08 3.25a50.54 50.54 0 0 1-17.69 3.12 50.56 50.56 0 0 1-17.7-3.12C.7 48.33 0 47.33 0 45.6V0h39.54z"/><path fill="#FFD200" d="M10.6 27.8c-5.47-3.42-7.28-4.94-7.43-7.18-.03-.45.07-1.22.27-1.77l-.52-.34a4.56 4.56 0 0 0-.68 2.32c0 1.3.42 2.27.93 3.05.77 1.19 1.57 1.93 3.57 3.43a13.58 13.58 0 0 1 4.46 5.46h.3v-2.23c2.9 1.64 5.46 3.2 6.72 5.96h.3c-.49-2.87-2.11-5.08-7.92-8.7m25.22 8.7h-.37c0-2.04-1.88-2.6-3.84-2.6h-6.13c.2 1.01.3 2.2.14 3.3h-.3c-.57-4.59-3.17-6.86-6.8-9.3V30h-.3c-.97-2.16-3.08-4.18-5.09-5.62l-1.63-1.16v2.25h-.3c-.86-2.23-2.4-3.9-4.6-5.89-2.38-2.14-3.34-3.42-3.9-4.9a6.94 6.94 0 0 1-.44-2.58c-.02-1.75.87-3.34 1.97-3.93v.85a4.3 4.3 0 0 0-.83 2.57c0 .87.2 1.82.63 2.64 1.34 2.54 5.85 5.67 8.71 7.6 8.9 5.97 10.68 7 12.16 10.18.17.35.33.82.47 1.38l6.8-1.05c.18-.03.52-.07.7-.08.8-.5 1.43-1.16 1.98-1.96l-3.41-.27c-.18.4-.35.72-.5.99h-.29c.1-.35.18-.7.25-1.03l-.87-.06v-.19l.94-.12c.18-.96.27-1.88.28-2.73l-4.3-.24c-.02.44-.02.85 0 1.24h-.28c-.1-.43-.17-.86-.22-1.27l-.94-.06v-.28l.9-.05c-.13-1.14-.14-2.2-.1-3.11l-2.5-.12c.1.22.23.45.32.69a8.3 8.3 0 0 1 .23 4.11h-.3a9.13 9.13 0 0 0-.67-2.81c-.7-1.64-2.25-3.09-4.87-4.77v2.1h-.3c-.87-2.76-3.04-4.29-6.26-5.94-2.65-1.36-3.48-3-3.33-5.55l.9.53a3.96 3.96 0 0 0 3.97 3.74c1.13-.01 2.18-.16 3.2-.36 1.47-.3 2.83-.55 3.97-.15v-1.4h-.9c-.31.27-.96.59-1.92.6-1.04.03-3.02-.58-3.02-2.8 0-1.92 1.62-2.22 2.95-2.22.71 0 1.89-.03 2.29-.05.3-.02.52-.06.66-.2.15-.16.2-.3.23-.5.04-.24.04-.49.04-.9v-1.4h-6.14v2.43l-2.33-.89v-.58h1.12v-.97H9.5V3.7H8.1c-.76 0-1.63.53-1.7 1.56-.05.98.39 1.81 1.4 1.81h.18v1.18H7.8a3.04 3.04 0 0 1-3.1-3.1C4.7 3.3 6.26 1.9 8.16 1.9h3v2.02H22.8V6.9c0 .5-.03 1.18-.08 1.6a1.8 1.8 0 0 1-.73 1.32c-.36.27-.9.38-1.76.39-.29 0-1.11-.02-2.1-.08-1.33-.08-1.7.43-1.76.9v.3c.62-.48 1.5-.82 2.5-.5 1.76.55 2.26.6 3.18-.13l.09.21c-.1.15-.28.37-.53.57h.85v4.6l2.64-1.59h7.42l3.66 1.91c.45.24.63.53.7.96.06.35-.03.8-.2 1.1l-1.42 2.31a7.99 7.99 0 0 1-.91 11.67c1.02.33 1.67.89 2.18 1.62zM19.27 11.74c-1.04-.23-1.62-.1-2.22.47.3.14.66.21 1.06.19.59-.05.95-.4 1.16-.66m-.6 6.63 2.94-1.76a4.48 4.48 0 0 0-1.97-.48c-1.02-.02-2.73.44-3.55.57.37.25 1.68 1.1 2.58 1.67m13.11.18.41-.57-.63-.84.1-.19 1.78.96-.4 1.17c.3.14.56.31.9.54l1.15-1.88-2.96-1.55h-6.56l-5.32 3.2c1 .7 1.92 1.44 2.58 2.2a7.97 7.97 0 0 1 8.95-3.04m-.53 7.43c-.04-.98-.16-1.86-.32-2.64l-3.47-.16c-.24 1.06-.4 2.09-.47 3.03zm1.17-2.58c.1.9.12 1.74.06 2.52l3.45-.18a6.7 6.7 0 0 0-.65-2.2zm-1.75-1.12c-.36-1.24-.8-2.1-1.02-2.51a7.03 7.03 0 0 0-.43-.02c-.25 0-.5.04-.73.06-.34.87-.63 1.75-.86 2.64zm.95-2.09c.26.7.45 1.36.6 2l2.1-.11a6.76 6.76 0 0 0-2.7-1.89m3.87 8.88c.24-.6.4-1.18.45-1.9l-3.58-.2c-.16 1-.43 1.87-.71 2.58zm-8.82-8.74a6.43 6.43 0 0 0-2.76 2.31l2.45-.12c.08-1.09.23-1.81.31-2.19"/><path fill="#FFF" d="M22.13 41.79c1-.16 1.95-.94 1.95-2.11 0-1.06-.45-2.22-3.56-2.22h-5.26v.09c.16.04.42.17.58.33.36.35.47.87.49 1.57v7.86h4.35c2.4 0 4.13-.91 4.13-3 0-1.7-1.32-2.43-2.68-2.52m-2.24-3.4c1.11 0 1.87.25 1.87 1.44 0 1.27-1.01 1.62-2.17 1.62h-1V38.4zm.11 7.99h-1.4v-4.02h1.34c1.84 0 2.55.55 2.55 1.93 0 1.49-.93 2.09-2.49 2.09m-8.61.93h2.84l-3.63-4.63c1.46-.4 2.54-1.19 2.54-2.63 0-1.7-1.01-2.6-3.66-2.6H3.99v.1c.2.06.43.2.58.34.38.38.5.96.5 1.74v7.68h2.27v-4.37h.84zM7.35 38.4h1.53c1.27 0 1.94.37 1.94 1.73 0 1.2-.87 1.92-2.27 1.92h-1.2zm26.65.4c.6.34.8.8.8.8.03.03.1.02.1.02l.49-1.68s-.9-.64-3-.64c-3.21 0-5.6 1.61-5.6 5.14 0 3.98 2.85 5.01 5.37 5.01 2.34 0 3.26-.75 3.26-.75v-1.15s-.83.77-2.6.77c-1.47 0-3.62-.67-3.66-3.94-.05-3.02 1.27-4 3.03-4 .98 0 1.48.23 1.81.42"/></svg>