<svg width="216" height="34" viewBox="0 0 216 34" fill="none" xmlns="http://www.w3.org/2000/svg">
<g clip-path="url(#clip0_1_1352)">
<path d="M41.1051 10.6614C37.4419 10.5939 33.7729 10.5379 30.1125 10.4518C29.467 10.436 29.0659 10.6614 28.7352 11.2172C26.9841 14.1658 25.1985 17.0942 23.4345 20.0355C23.1757 20.4663 22.8235 20.6272 22.3304 20.6186C15.2464 20.4912 8.16291 20.3672 1.07991 20.2466C0.178482 20.2294 -0.278702 19.4524 0.181358 18.6826C1.80594 15.9624 3.45066 13.2466 5.08531 10.5379C5.3254 10.1387 5.68626 10.0151 6.13769 10.0252C9.5105 10.0941 12.8833 10.1372 16.2561 10.2263C16.985 10.2449 17.4437 10.0266 17.8232 9.38179C19.4765 6.56972 21.1931 3.79786 22.8465 0.98579C23.2519 0.296416 23.722 0.0177944 24.5415 0.0335925C34.3379 0.23466 44.1353 0.414663 53.9336 0.573602C55.0665 0.593709 56.1979 0.599453 57.3308 0.626741C58.2811 0.651156 58.7153 1.44968 58.2279 2.25251C56.6278 4.89799 55.0219 7.53915 53.4347 10.1918C53.3245 10.4099 53.1517 10.5903 52.9384 10.7097C52.725 10.8292 52.4809 10.8824 52.2371 10.8625C48.5264 10.785 44.8158 10.7189 41.1065 10.6557L41.1051 10.6614Z" fill="#122AFF"/>
<path d="M28.3945 31.0267L19.2206 30.873C19.0366 30.873 18.8512 30.873 18.6686 30.8601C17.8275 30.7912 17.425 30.0271 17.8592 29.2975C18.8138 27.6933 19.7813 26.0962 20.7446 24.4963C21.3915 23.4206 22.05 22.3521 22.684 21.2692C22.7922 21.0578 22.9611 20.8835 23.1691 20.7686C23.3771 20.6537 23.6147 20.6035 23.8514 20.6243C27.2544 20.6976 30.6574 20.7435 34.059 20.8297C34.7016 20.8455 35.1157 20.6373 35.4464 20.08C36.9818 17.4848 38.5489 14.9097 40.0987 12.3246C40.3316 11.9353 40.6077 11.6208 41.1051 11.6352C41.6025 11.6495 41.8584 11.9684 42.0784 12.3662C43.5161 14.9672 44.9408 17.5695 46.4087 20.1504C46.771 20.7881 46.7739 21.2993 46.3857 21.9298C44.6519 24.7448 42.9439 27.576 41.2618 30.4235C40.9067 31.0209 40.4768 31.2665 39.7724 31.2479C36.3277 31.1574 32.8787 31.1086 28.3945 31.0267Z" fill="#122AFF"/>
<path d="M69.5399 21.6251H74.6815C75.0818 22.916 76.1902 23.5615 77.7296 23.5615C79.2382 23.5615 80.285 22.916 80.285 21.748C80.285 20.8566 79.7 20.457 78.4993 20.1804L74.8663 19.412C72.0953 18.7972 70.0017 17.3525 70.0017 14.1558C70.0017 10.4673 73.0806 8.03906 77.2677 8.03906C81.886 8.03906 84.5029 10.5595 85.0263 13.8177H80.1926C79.7924 12.7726 78.9303 11.9735 77.2985 11.9735C75.8823 11.9735 74.9278 12.5882 74.9278 13.6333C74.9278 14.4632 75.5128 14.9243 76.498 15.1394L80.1926 16.0001C83.4254 16.7685 85.2111 18.5206 85.2111 21.4406C85.2111 25.3136 81.9475 27.5267 77.8219 27.5267C73.2961 27.5267 70.2173 25.3443 69.5399 21.6251Z" fill="#1F212D"/>
<path d="M88.1665 22.455V17.1374H86.1345V13.3874H88.1665V9.57594H92.9387V13.3874H95.8327V17.1374H92.9387V21.748C92.9387 22.8238 93.462 23.2849 94.4165 23.2849C94.9399 23.2849 95.5249 23.1619 95.9559 22.9775V27.0656C95.4017 27.3115 94.3549 27.4959 93.2773 27.4959C90.0138 27.4959 88.1665 25.9591 88.1665 22.455Z" fill="#1F212D"/>
<path d="M111.548 20.3034C111.548 24.5759 108.685 27.5267 104.467 27.5267C100.28 27.5267 97.3859 24.5759 97.3859 20.3034C97.3859 16.0308 100.28 13.08 104.467 13.08C108.685 13.08 111.548 16.0308 111.548 20.3034ZM106.807 20.3034C106.807 18.3976 105.976 17.0452 104.467 17.0452C102.989 17.0452 102.158 18.3976 102.158 20.3034C102.158 22.2091 102.989 23.5308 104.467 23.5308C105.976 23.5308 106.807 22.2091 106.807 20.3034Z" fill="#1F212D"/>
<path d="M122.727 13.3259V17.9673C122.142 17.6599 121.495 17.537 120.725 17.537C119.402 17.537 118.509 18.121 118.262 19.1046V27.2193H113.429V13.3874H118.262V14.6169C118.94 13.6948 120.017 13.08 121.403 13.08C122.019 13.08 122.511 13.203 122.727 13.3259Z" fill="#1F212D"/>
<path d="M136.659 27.2193H132.01V26.5123C131.548 26.9734 130.162 27.4652 128.685 27.4652C125.944 27.4652 123.635 25.9283 123.635 23.0083C123.635 20.3341 125.944 18.6128 128.962 18.6128C130.101 18.6128 131.456 18.9816 132.01 19.3812V18.4898C132.01 17.5984 131.486 16.83 130.316 16.83C129.424 16.83 128.9 17.2296 128.685 17.8443H124.128C124.528 15.1702 126.899 13.0493 130.47 13.0493C134.411 13.0493 136.659 15.1394 136.659 18.7357V27.2193ZM132.01 23.3464V22.5472C131.702 21.9632 130.871 21.5943 129.978 21.5943C129.023 21.5943 128.069 21.9939 128.069 22.916C128.069 23.8689 129.023 24.2685 129.978 24.2685C130.871 24.2685 131.702 23.8996 132.01 23.3464Z" fill="#1F212D"/>
<path d="M147.697 26.2664V25.2828C147.082 25.9898 145.943 26.6353 144.403 26.6353C140.524 26.6353 138.276 23.6537 138.276 19.8423C138.276 16.0616 140.524 13.08 144.403 13.08C145.943 13.08 147.082 13.6948 147.697 14.4325V13.3874H152.47V25.2214C152.47 30.0779 149.483 32.414 145.265 32.414C141.571 32.414 138.923 30.6004 138.43 27.4037H143.079C143.356 28.3873 144.095 28.8791 145.265 28.8791C146.774 28.8791 147.697 28.08 147.697 26.2664ZM147.697 21.6251V18.0595C147.328 17.4448 146.558 16.8915 145.604 16.8915C144.003 16.8915 143.048 18.121 143.048 19.8423C143.048 21.5943 144.003 22.7931 145.604 22.7931C146.558 22.7931 147.328 22.2706 147.697 21.6251Z" fill="#1F212D"/>
<path d="M163.414 22.3935H167.879C167.386 25.5902 164.985 27.5267 161.382 27.5267C157.134 27.5267 154.332 24.6066 154.332 20.3034C154.332 16.0308 157.288 13.08 161.29 13.08C165.539 13.08 167.94 15.9079 167.94 20.0267V21.2255H158.981C159.135 22.8853 159.997 23.7767 161.382 23.7767C162.368 23.7767 163.137 23.3464 163.414 22.3935ZM161.29 16.83C160.151 16.83 159.381 17.537 159.073 18.8279H163.26C163.199 17.6907 162.491 16.83 161.29 16.83Z" fill="#1F212D"/>
<path d="M181.781 17.4755C183.566 18.0595 184.859 19.8116 184.859 21.9324C184.859 25.3443 182.52 27.2193 178.579 27.2193H169.896V8.34644H177.994C181.935 8.34644 184.305 10.0985 184.305 13.4796C184.305 15.5083 183.166 16.9837 181.781 17.4755ZM174.607 15.8157H177.44C178.887 15.8157 179.656 15.2624 179.656 14.0944C179.656 12.9263 178.887 12.4038 177.44 12.4038H174.607V15.8157ZM174.607 19.5042V23.1619H177.932C179.318 23.1619 180.087 22.4242 180.087 21.3484C180.087 20.2111 179.318 19.5042 177.932 19.5042H174.607Z" fill="#1F212D"/>
<path d="M200.335 20.3034C200.335 24.5759 197.472 27.5267 193.254 27.5267C189.066 27.5267 186.172 24.5759 186.172 20.3034C186.172 16.0308 189.066 13.08 193.254 13.08C197.472 13.08 200.335 16.0308 200.335 20.3034ZM195.593 20.3034C195.593 18.3976 194.762 17.0452 193.254 17.0452C191.776 17.0452 190.944 18.3976 190.944 20.3034C190.944 22.2091 191.776 23.5308 193.254 23.5308C194.762 23.5308 195.593 22.2091 195.593 20.3034Z" fill="#1F212D"/>
<path d="M215.312 13.3874L210.663 20.1497L215.527 27.2193H210.293L207.922 23.623L205.552 27.2193H200.564L205.398 20.1804L200.78 13.3874H205.983L208.138 16.7071L210.324 13.3874H215.312Z" fill="#1F212D"/>
</g>
<defs>
<clipPath id="clip0_1_1352">
<rect width="215.688" height="34" fill="white"/>
</clipPath>
</defs>
</svg>